<svg width="191" height="57" viewBox="0 0 191 57" xmlns="http://www.w3.org/2000/svg" xmlns:xlink="http://www.w3.org/1999/xlink"><title>1C9D2A1B-42BF-4005-B272-DFDE64898F35</title><defs><path id="a" d="M95.32 55.913h95.32V0H0v55.913z"/></defs><g transform="translate(0 .61)" fill="none" fill-rule="evenodd"><mask id="b" fill="#fff"><use xlink:href="#a"/></mask><path d="M89.916 26.625l.992-2.686h.165l.991 2.686h-2.148zm.363-8.271l-5.735 12.432h3.67l.627-1.426h4.298l.628 1.426h3.67L91.7 18.354h-1.42zM23.524 30.781h3.37V18.357h-3.37v12.424zM52.728-.262H0l8.78 18.625h3.74l3.14 6.777 3.14-6.777h3.768l-5.652 12.43h-2.274L26.363 55.65l11.928-25.296a7.346 7.346 0 0 1-3.187.708c-3.503 0-6.641-2.799-6.641-6.493s3.138-6.495 6.64-6.495c2.363 0 4.493 1.044 5.782 2.933l-2.809 1.723c-.627-.861-1.518-1.441-2.808-1.441-1.718 0-3.204 1.574-3.204 3.28 0 1.706 1.486 3.28 3.204 3.28 1.29 0 2.181-.58 2.808-1.442l1.61.988 2.825-5.99h2.421v9.375h3.37v-9.375h3.386v-3.049h-7.74l8.78-18.62zm6.394 28.112a3.283 3.283 0 0 1-3.271-3.28c0-1.807 1.47-3.28 3.271-3.28s3.271 1.473 3.271 3.28c0 1.805-1.47 3.28-3.271 3.28m0-9.774c-3.684 0-6.872 2.799-6.872 6.493 0 3.695 3.188 6.494 6.872 6.494 3.684 0 6.872-2.8 6.872-6.494s-3.188-6.493-6.872-6.493m13.958 6.278h-2.148v-2.948h2.148c.76 0 1.255.862 1.255 1.474s-.495 1.474-1.255 1.474m4.791-1.474c0-2.6-2.066-4.523-4.675-4.523h-5.633v12.425h3.369v-3.38h1.586l1.537 3.38h3.783l-2.099-4.175c1.19-.828 2.132-2.054 2.132-3.727m1.651 7.901h3.37V18.357h-3.37M44.581 40.224l1.178-.47c.189.557.64.805 1.247.805.667 0 1.017-.317 1.017-.729 0-.325-.153-.522-.666-.625l-1.127-.231c-.683-.138-1.504-.522-1.504-1.644 0-1.028.837-1.747 2.178-1.747.982 0 1.767.453 2.118 1.215l-1.11.368c-.188-.358-.58-.582-1.034-.582-.58 0-.93.326-.93.71 0 .292.127.489.571.583l1.145.248c.93.207 1.504.754 1.504 1.645 0 1.114-.915 1.807-2.272 1.807-1.068 0-2.016-.445-2.315-1.353m8.541 1.036c-.444.24-.752.317-1.11.317-1.009 0-1.675-.531-1.675-1.705V38.1h-.913v-.925h.913v-1.292h1.127v1.292h1.393v.925h-1.393v1.687c0 .514.248.737.625.737.196 0 .486-.085.708-.205l.325.941zm3.595-1.944c0-.787-.607-1.284-1.213-1.284-.684 0-1.196.497-1.196 1.284s.512 1.276 1.196 1.276c.606 0 1.213-.488 1.213-1.276zm1.127-2.14v4.273h-1.127v-.335c-.36.292-.829.463-1.41.463-1.084 0-2.091-.916-2.091-2.26s1.007-2.27 2.091-2.27c.581 0 1.05.17 1.41.471v-.342h1.127zm4.126 4.084c-.445.24-.753.317-1.11.317-1.01 0-1.675-.531-1.675-1.705V38.1h-.913v-.925h.913v-1.292h1.127v1.292h1.392v.925h-1.392v1.687c0 .514.248.737.624.737.197 0 .487-.085.709-.205l.324.941zm1.246-2.44h2.058c-.154-.548-.556-.788-1.008-.788-.426 0-.913.256-1.05.788zm3.21.796h-3.244c.11.617.554.994 1.11.994.341 0 .717-.061 1.015-.428l.897.445c-.409.642-1.076.95-1.912.95-1.247 0-2.23-.916-2.23-2.26 0-1.346.983-2.27 2.204-2.27 1.135 0 2.119.883 2.16 2.184v.385zM50.405 46.57c0 1.706-1.211 2.982-2.904 2.982-1.706 0-3.04-1.311-3.04-2.999 0-1.678 1.36-2.997 3.04-2.997.898 0 1.7.35 2.23.985l-.957.66c-.324-.377-.776-.548-1.273-.548-1.025 0-1.861.813-1.861 1.9 0 1.089.828 1.91 1.896 1.91.87 0 1.52-.514 1.717-1.327h-1.495v-1.062h2.622c.017.197.025.36.025.497m3.955.719c0-.797-.615-1.276-1.204-1.276-.615 0-1.23.48-1.23 1.276s.615 1.276 1.23 1.276c.59 0 1.204-.48 1.204-1.276m1.093 0c0 1.345-1.05 2.245-2.297 2.245-1.272 0-2.323-.9-2.323-2.245 0-1.345 1.05-2.244 2.323-2.244 1.247 0 2.297.9 2.297 2.244m4.919-2.15l-1.775 4.283H57.4l-1.776-4.283h1.212l1.162 2.904 1.162-2.904m2.536 1.653h2.058c-.153-.547-.555-.787-1.007-.787-.427 0-.914.256-1.05.787zm3.21.796h-3.244c.11.618.555.994 1.11.994.342 0 .717-.06 1.016-.427l.897.445c-.41.642-1.076.95-1.913.95-1.247 0-2.229-.916-2.229-2.261s.982-2.269 2.204-2.269c1.135 0 2.118.882 2.16 2.184v.384zm3.64-2.466l-.06 1.088h-.248c-1.041 0-1.52.642-1.52 1.833v1.378H65.59V45.15h1.127v.78c.341-.497.836-.84 1.53-.84.11 0 .196 0 .298.034m4.715 1.696v2.602h-1.127V47.06c0-.6-.342-1.002-.862-1.002-.642 0-1.06.428-1.06 1.473v1.892h-1.128V45.15h1.128v.386c.333-.334.777-.514 1.34-.514 1.026 0 1.709.735 1.709 1.798m7.925-.07v2.672h-1.119v-2.44c0-.574-.367-.925-.836-.925-.598 0-.992.411-.992 1.31v2.055h-1.127v-2.44c0-.574-.367-.925-.836-.925-.598 0-.974.411-.974 1.31v2.055h-1.127V45.15H75.3v.35c.298-.298.718-.478 1.272-.478.573 0 1.094.248 1.402.702.35-.438.87-.702 1.553-.702.888 0 1.657.684 1.657 1.73m1.735.041h2.058c-.153-.547-.556-.787-1.008-.787-.426 0-.913.256-1.05.787zm3.21.796h-3.244c.11.618.554.994 1.11.994.342 0 .717-.06 1.017-.427l.896.445c-.41.642-1.076.95-1.913.95-1.247 0-2.229-.916-2.229-2.261s.982-2.269 2.203-2.269c1.136 0 2.119.882 2.16 2.184v.384zm4.861-.769v2.602h-1.127V47.06c0-.6-.342-1.002-.863-1.002-.641 0-1.06.428-1.06 1.473v1.892h-1.127V45.15h1.127v.386c.334-.334.778-.514 1.341-.514 1.025 0 1.709.735 1.709 1.798m4.014 2.414c-.444.24-.752.317-1.11.317-1.009 0-1.674-.531-1.674-1.705v-1.772h-.914v-.926h.914v-1.292h1.127v1.292h1.392v.926h-1.392v1.687c0 .514.247.737.624.737.195 0 .485-.085.707-.205l.326.941zm15.442.196h.26V18.35h-.26m18.567 6.37v.765h-5.19v-7.13h5.18v.756h-4.341v2.416h4.032v.755h-4.032v2.437m10.398-2.373v3.14h-.807v-2.99c0-.98-.582-1.64-1.453-1.64-1.093 0-1.815.746-1.815 2.108v2.522h-.806V20.24h.806v.862c.425-.628 1.104-.99 1.974-.99 1.263 0 2.101.905 2.101 2.235m6.155-2.108l-2.314 5.247h-.88l-2.314-5.247h.88l1.868 4.3 1.879-4.3m1.898 5.247h.818v-5.247h-.818v5.247zm.966-6.833a.543.543 0 0 1-.563.543.535.535 0 0 1-.553-.543c0-.288.236-.543.553-.543.318 0 .563.255.563.543zm4.903 1.575l-.063.777c-.097-.01-.212-.01-.308-.01-1.39 0-2.101 1.053-2.101 2.47v2.021h-.818v-5.247h.818v1.298c.424-.777 1.123-1.352 2.101-1.352.126 0 .222 0 .371.043m5.029 2.629c0-1.203-.902-2.022-1.973-2.022-1.083 0-1.996.819-1.996 2.022 0 1.214.913 2.043 1.996 2.043 1.07 0 1.973-.83 1.973-2.043m.796 0c0 1.606-1.23 2.757-2.77 2.757-1.56 0-2.78-1.15-2.78-2.757s1.22-2.736 2.78-2.736c1.54 0 2.77 1.13 2.77 2.736m6.07-.511v3.14h-.807v-2.99c0-.98-.583-1.64-1.454-1.64-1.094 0-1.815.746-1.815 2.108v2.522h-.806V20.24h.806v.862c.425-.628 1.103-.99 1.973-.99 1.265 0 2.103.905 2.103 2.235m9.634-.257v3.396h-.807v-3.258c0-.83-.562-1.372-1.348-1.372-.965 0-1.602.713-1.602 1.948v2.682h-.807v-3.258c0-.83-.56-1.372-1.337-1.372-.965 0-1.59.713-1.59 1.948v2.682h-.808v-5.247h.807v.787c.371-.563.966-.915 1.782-.915.807 0 1.476.393 1.784 1.075.402-.66 1.081-1.075 1.973-1.075 1.104 0 1.953.787 1.953 1.98m1.888.329h3.64c-.149-1.031-.87-1.595-1.75-1.595-.85 0-1.732.573-1.89 1.596zm4.457.608h-4.49c.074 1.181.978 1.883 1.912 1.883.657 0 1.272-.223 1.676-.808l.648.329c-.479.788-1.306 1.192-2.324 1.192-1.413 0-2.696-1.075-2.696-2.746 0-1.68 1.262-2.767 2.706-2.767 1.411 0 2.514 1.065 2.568 2.619v.298zm6.08-.682v3.14h-.807v-2.99c0-.98-.582-1.64-1.454-1.64-1.094 0-1.815.746-1.815 2.108v2.522h-.805V20.24h.805v.862c.425-.628 1.103-.99 1.975-.99 1.263 0 2.101.905 2.101 2.235m4.689 2.862c-.424.298-.786.415-1.21.415-1.039 0-1.73-.617-1.73-1.777V20.92h-1.134v-.682h1.135v-1.67h.816v1.67h1.869v.682h-1.869v2.874c0 .681.382 1.064.968 1.064.295 0 .625-.128.89-.32l.265.67zm1.029 1.681h-.637l.7-2.798h.957v.021m-60.056 12.244v.766h-4.914v-7.13h.838v6.364m9.349-1.692v-.32c-.085-1.16-1.007-1.883-1.952-1.883-1.082 0-1.953.787-1.953 2.043 0 1.246.87 2.034 1.953 2.034.945 0 1.867-.725 1.952-1.874zm.807-2.788v5.247h-.807v-.82c-.476.607-1.21.958-2.08.958-1.39 0-2.61-1.097-2.61-2.757 0-1.66 1.22-2.756 2.61-2.756.87 0 1.604.35 2.08.958v-.83h.807zm6.344 2.107v3.14h-.805v-2.992c0-.978-.584-1.639-1.454-1.639-1.094 0-1.815.746-1.815 2.109v2.522h-.807v-5.247h.807v.862c.424-.629 1.103-.99 1.973-.99 1.263 0 2.101.905 2.101 2.235m5.763.681v-.32c-.085-1.16-1.009-1.883-1.953-1.883-1.083 0-1.953.787-1.953 2.043 0 1.246.87 2.034 1.953 2.034.944 0 1.868-.725 1.953-1.874zm.807-5.204v7.663h-.807v-.82c-.478.607-1.21.958-2.081.958-1.39 0-2.61-1.097-2.61-2.757 0-1.66 1.22-2.756 2.61-2.756.87 0 1.603.35 2.08.958V29.46h.808zm1.536 9.067h-.637l.7-2.799h.957v.022m12.639-5.758l-2.186 7.131h-.882l-1.804-5.79-1.815 5.79h-.87l-2.187-7.131h.872l1.772 5.843 1.814-5.843h.817l1.815 5.843 1.773-5.843m5.591 4.672v-.32c-.085-1.16-1.009-1.883-1.953-1.883-1.083 0-1.953.787-1.953 2.043 0 1.246.87 2.034 1.953 2.034.944 0 1.868-.725 1.953-1.874zm.807-2.788v5.247h-.807v-.82c-.478.607-1.21.958-2.08.958-1.39 0-2.61-1.097-2.61-2.757 0-1.66 1.22-2.756 2.61-2.756.87 0 1.602.35 2.08.958v-.83h.807zm4.816 4.97c-.424.298-.786.415-1.21.415-1.04 0-1.73-.618-1.73-1.778v-2.927h-1.136v-.68h1.137v-1.672h.816v1.671h1.869v.681h-1.869v2.875c0 .681.382 1.064.966 1.064.297 0 .627-.128.892-.32l.265.67zm1.028-2.789h3.64c-.148-1.033-.87-1.597-1.75-1.597-.85 0-1.73.575-1.89 1.597zm4.458.607h-4.49c.075 1.182.978 1.883 1.911 1.883.658 0 1.273-.222 1.676-.808l.649.33c-.48.787-1.305 1.192-2.325 1.192-1.412 0-2.695-1.075-2.695-2.746 0-1.681 1.262-2.767 2.706-2.767 1.411 0 2.514 1.064 2.568 2.618v.298zm4.488-2.799l-.063.777c-.097-.011-.212-.011-.308-.011-1.39 0-2.102 1.053-2.102 2.47v2.022h-.817v-5.247h.817v1.299c.425-.779 1.124-1.352 2.102-1.352.127 0 .222 0 .371.042m-55.249 14.437v-.32c-.085-1.16-1.008-1.883-1.953-1.883-1.083 0-1.953.786-1.953 2.042 0 1.247.87 2.034 1.953 2.034.945 0 1.868-.724 1.953-1.873zm.807-2.788v5.247h-.807v-.82c-.478.607-1.211.957-2.081.957-1.39 0-2.61-1.096-2.61-2.757 0-1.659 1.22-2.755 2.61-2.755.87 0 1.603.35 2.08.957v-.83h.808zm6.769 2.107v3.14h-.807V45.77c0-.98-.584-1.639-1.454-1.639-1.093 0-1.814.746-1.814 2.108v2.523h-.807v-5.247h.807v.862c.423-.629 1.103-.99 1.973-.99 1.263 0 2.102.905 2.102 2.235m5.973.681v-.32c-.084-1.16-1.009-1.883-1.953-1.883-1.083 0-1.953.786-1.953 2.042 0 1.247.87 2.034 1.953 2.034.944 0 1.869-.724 1.953-1.873zm.807-5.204v7.663h-.807v-.82c-.477.607-1.21.957-2.08.957-1.39 0-2.61-1.096-2.61-2.757 0-1.659 1.22-2.755 2.61-2.755.87 0 1.603.35 2.08.957V41.1h.807zm9.751 2.745c0-.851-.627-1.458-1.646-1.458h-2.26v2.916h2.26c1.02 0 1.646-.607 1.646-1.458m.828 0c0 1.31-.955 2.214-2.474 2.214h-2.26v2.703h-.838v-7.13h3.098c1.519 0 2.474.903 2.474 2.213m1.357 4.917h.807V41.1h-.807m6.855 5.203v-.32c-.085-1.16-1.007-1.883-1.953-1.883-1.083 0-1.953.786-1.953 2.042 0 1.247.87 2.034 1.953 2.034.946 0 1.868-.724 1.953-1.873zm.807-2.788v5.247h-.807v-.82c-.477.607-1.21.957-2.08.957-1.39 0-2.61-1.096-2.61-2.757 0-1.659 1.22-2.755 2.61-2.755.87 0 1.603.35 2.08.957v-.83h.807zm6.557 2.107v3.14h-.807V45.77c0-.98-.582-1.639-1.454-1.639-1.092 0-1.814.746-1.814 2.108v2.523h-.806v-5.247h.806v.862c.425-.629 1.102-.99 1.974-.99 1.263 0 2.101.905 2.101 2.235m6.43 0v3.14h-.807V45.77c0-.98-.582-1.639-1.454-1.639-1.093 0-1.814.746-1.814 2.108v2.523h-.806v-5.247h.806v.862c.425-.629 1.103-.99 1.973-.99 1.264 0 2.102.905 2.102 2.235m1.633 3.139h.818v-5.247h-.818v5.247zm.966-6.833c0 .309-.244.544-.563.544s-.552-.235-.552-.544c0-.287.234-.542.552-.542s.563.255.563.542zm6.706 3.694v3.14h-.806V45.77c0-.98-.583-1.639-1.454-1.639-1.093 0-1.816.746-1.816 2.108v2.523h-.805v-5.247h.805v.862c.425-.629 1.105-.99 1.975-.99 1.263 0 2.101.905 2.101 2.235m5.613.287c0-1.117-.87-1.82-1.845-1.82-1.063 0-1.911.703-1.911 1.82 0 1.118.848 1.84 1.91 1.84.976 0 1.846-.722 1.846-1.84zm.797 2.426c-.011 1.532-1.157 2.448-2.739 2.448-.986 0-1.804-.33-2.27-.905l.54-.596c.382.468.955.766 1.72.766 1.124 0 1.952-.701 1.952-1.82v-.637c-.423.553-1.093.862-1.963.862-1.38 0-2.579-1.054-2.579-2.544 0-1.479 1.2-2.523 2.579-2.523.87 0 1.54.32 1.963.862v-.734h.786l.01 4.821z" fill="#FFF" mask="url(#b)"/></g></svg>